<svg xmlns="http://www.w3.org/2000/svg" width="1042" height="36" viewBox="0 0 1042 36">
  <g id="Grupo_5" data-name="Grupo 5" transform="translate(-163 -3077)">
    <path id="Icon_metro-truck2" data-name="Icon metro-truck2" d="M38.8,21.636l-4.529-9.058H27.481V8.049a2.271,2.271,0,0,0-2.265-2.265H4.835A2.271,2.271,0,0,0,2.571,8.049V26.166L4.835,28.43H7.707a4.529,4.529,0,1,0,7.844,0H28.089a4.529,4.529,0,1,0,7.843,0H38.8V21.636Zm-11.323,0V14.843h4.694l3.4,6.794H27.481Z" transform="translate(160.429 3073.282)" fill="#fff"/>
    <text id="Frete_Grátis" data-name="Frete Grátis" transform="translate(214 3092)" fill="#fff" font-size="17" font-family="Arial-BoldMT, Arial" font-weight="700"><tspan x="0" y="0">Frete Grátis</tspan></text>
    <text id="Acima_de_R_:200_00" data-name="Acima de R$:200,00" transform="translate(214 3110)" fill="#fff" font-size="12" font-family="ArialMT, Arial"><tspan x="0" y="0">Acima de R$:200,00</tspan></text>
    <text id="Em_Até_10x_Sem_Juros" data-name="Em Até 10x Sem Juros" transform="translate(471 3092)" fill="#fff" font-size="17" font-family="Arial-BoldMT, Arial" font-weight="700"><tspan x="0" y="0">Em Até 10x Sem Juros</tspan></text>
    <text id="no_cartão_de_crédito" data-name="no cartão de crédito" transform="translate(474 3110)" fill="#fff" font-size="12" font-family="ArialMT, Arial"><tspan x="0" y="0">no cartão de crédito</tspan></text>
    <path id="Icon_awesome-credit-card" data-name="Icon awesome-credit-card" d="M0,29.255A3.241,3.241,0,0,0,3.241,32.5H35.646a3.241,3.241,0,0,0,3.241-3.241V17.373H0Zm12.962-4.591a.813.813,0,0,1,.81-.81h9.182a.813.813,0,0,1,.81.81v2.7a.813.813,0,0,1-.81.81H13.772a.813.813,0,0,1-.81-.81Zm-8.641,0a.813.813,0,0,1,.81-.81H9.992a.813.813,0,0,1,.81.81v2.7a.813.813,0,0,1-.81.81H5.131a.813.813,0,0,1-.81-.81ZM38.887,5.491V8.731H0V5.491A3.241,3.241,0,0,1,3.241,2.25H35.646A3.241,3.241,0,0,1,38.887,5.491Z" transform="translate(408.607 3079.933)" fill="#fff"/>
    <path id="Icon_metro-truck2-2" data-name="Icon metro-truck2" d="M38.8,21.636l-4.529-9.058H27.481V8.049a2.271,2.271,0,0,0-2.265-2.265H4.835A2.271,2.271,0,0,0,2.571,8.049V26.166L4.835,28.43H7.707a4.529,4.529,0,1,0,7.844,0H28.089a4.529,4.529,0,1,0,7.843,0H38.8V21.636Zm-11.323,0V14.843h4.694l3.4,6.794H27.481Z" transform="translate(718.612 3073.282)" fill="#fff"/>
    <text id="Frete_Grátis-2" data-name="Frete Grátis" transform="translate(778 3092)" fill="#fff" font-size="17" font-family="Arial-BoldMT, Arial" font-weight="700"><tspan x="0" y="0">Frete Grátis</tspan></text>
    <text id="Acima_de_R_:200_00-2" data-name="Acima de R$:200,00" transform="translate(778 3110)" fill="#fff" font-size="12" font-family="ArialMT, Arial"><tspan x="0" y="0">Acima de R$:200,00</tspan></text>
    <text id="Em_Até_10x_Sem_Juros-2" data-name="Em Até 10x Sem Juros" transform="translate(1022 3092)" fill="#fff" font-size="17" font-family="Arial-BoldMT, Arial" font-weight="700"><tspan x="0" y="0">Em Até 10x Sem Juros</tspan></text>
    <text id="no_cartão_de_crédito-2" data-name="no cartão de crédito" transform="translate(1024 3110)" fill="#fff" font-size="12" font-family="ArialMT, Arial"><tspan x="0" y="0">no cartão de crédito</tspan></text>
    <path id="Icon_awesome-credit-card-2" data-name="Icon awesome-credit-card" d="M0,29.255A3.241,3.241,0,0,0,3.241,32.5H35.646a3.241,3.241,0,0,0,3.241-3.241V17.373H0Zm12.962-4.591a.813.813,0,0,1,.81-.81h9.182a.813.813,0,0,1,.81.81v2.7a.813.813,0,0,1-.81.81H13.772a.813.813,0,0,1-.81-.81Zm-8.641,0a.813.813,0,0,1,.81-.81H9.992a.813.813,0,0,1,.81.81v2.7a.813.813,0,0,1-.81.81H5.131a.813.813,0,0,1-.81-.81ZM38.887,5.491V8.731H0V5.491A3.241,3.241,0,0,1,3.241,2.25H35.646A3.241,3.241,0,0,1,38.887,5.491Z" transform="translate(957.462 3079.933)" fill="#fff"/>
  </g>
</svg>
